<mxfile host="app.diagrams.net" modified="2022-10-01T00:37:16.699Z" agent="5.0 (Windows NT 10.0; Win64; x64) AppleWebKit/537.36 (KHTML, like Gecko) Chrome/105.0.0.0 Safari/537.36" etag="sC2Plh4zKCltNrt1gyUF" version="20.3.6" type="github">
  <diagram id="R2lEEEUBdFMjLlhIrx00" name="Page-1">
    <mxGraphModel dx="868" dy="482" grid="1" gridSize="10" guides="1" tooltips="1" connect="1" arrows="1" fold="1" page="1" pageScale="1" pageWidth="850" pageHeight="1100" math="0" shadow="0" extFonts="Permanent Marker^https://fonts.googleapis.com/css?family=Permanent+Marker">
      <root>
        <mxCell id="0" />
        <mxCell id="1" parent="0" />
        <mxCell id="lRTCh0KjeCy6rbM3OG8G-1" value="NOTAÇÃO JAMES MARTIN" style="text;html=1;strokeColor=none;fillColor=none;align=left;verticalAlign=middle;whiteSpace=wrap;rounded=0;fontSize=24;" parent="1" vertex="1">
          <mxGeometry x="10" y="20" width="310" height="30" as="geometry" />
        </mxCell>
        <mxCell id="lRTCh0KjeCy6rbM3OG8G-2" value="DER - SISTEMA ACADÊMICO" style="text;html=1;strokeColor=none;fillColor=none;align=left;verticalAlign=middle;whiteSpace=wrap;rounded=0;fontSize=24;" parent="1" vertex="1">
          <mxGeometry x="20" y="470" width="350" height="30" as="geometry" />
        </mxCell>
        <mxCell id="lRTCh0KjeCy6rbM3OG8G-3" value="" style="swimlane;childLayout=stackLayout;horizontal=1;startSize=30;horizontalStack=0;rounded=0;fontSize=14;fontStyle=0;strokeWidth=2;resizeParent=0;resizeLast=1;shadow=0;dashed=0;align=center;aspect=fixed;" parent="1" vertex="1">
          <mxGeometry x="80" y="80" width="140" height="105" as="geometry" />
        </mxCell>
        <mxCell id="lRTCh0KjeCy6rbM3OG8G-5" value="&lt;font style=&quot;font-size: 14px;&quot;&gt;ENTIDADE&lt;/font&gt;" style="text;html=1;strokeColor=none;fillColor=none;align=left;verticalAlign=middle;whiteSpace=wrap;rounded=0;fontSize=14;fontStyle=1" parent="1" vertex="1">
          <mxGeometry x="230" y="110" width="100" height="20" as="geometry" />
        </mxCell>
        <mxCell id="lRTCh0KjeCy6rbM3OG8G-6" value="" style="swimlane;childLayout=stackLayout;horizontal=1;startSize=30;horizontalStack=0;rounded=1;fontSize=14;fontStyle=0;strokeWidth=2;resizeParent=0;resizeLast=1;shadow=0;dashed=0;align=center;aspect=fixed;" parent="1" vertex="1">
          <mxGeometry x="80" y="210" width="140" height="105" as="geometry" />
        </mxCell>
        <mxCell id="lRTCh0KjeCy6rbM3OG8G-7" value="&lt;font style=&quot;font-size: 14px&quot;&gt;ENTIDADE FRACA&lt;/font&gt;" style="text;html=1;strokeColor=none;fillColor=none;align=left;verticalAlign=middle;whiteSpace=wrap;rounded=0;fontSize=14;fontStyle=1" parent="1" vertex="1">
          <mxGeometry x="230" y="240" width="140" height="20" as="geometry" />
        </mxCell>
        <mxCell id="lRTCh0KjeCy6rbM3OG8G-8" value="" style="endArrow=none;html=1;rounded=0;strokeWidth=2;" parent="1" edge="1">
          <mxGeometry relative="1" as="geometry">
            <mxPoint x="80" y="360" as="sourcePoint" />
            <mxPoint x="220" y="360" as="targetPoint" />
          </mxGeometry>
        </mxCell>
        <mxCell id="lRTCh0KjeCy6rbM3OG8G-9" value="&lt;font style=&quot;font-size: 14px&quot;&gt;RELACIONAMENTO&lt;/font&gt;" style="text;html=1;strokeColor=none;fillColor=none;align=left;verticalAlign=middle;whiteSpace=wrap;rounded=0;fontSize=14;fontStyle=1" parent="1" vertex="1">
          <mxGeometry x="230" y="349" width="150" height="20" as="geometry" />
        </mxCell>
        <mxCell id="lRTCh0KjeCy6rbM3OG8G-13" value="" style="swimlane;childLayout=stackLayout;horizontal=1;startSize=30;horizontalStack=0;rounded=0;fontSize=14;fontStyle=0;strokeWidth=2;resizeParent=0;resizeLast=1;shadow=0;dashed=0;align=center;aspect=fixed;" parent="1" vertex="1">
          <mxGeometry x="445" y="80" width="140" height="105" as="geometry" />
        </mxCell>
        <mxCell id="lRTCh0KjeCy6rbM3OG8G-16" value="XXXXXXXXXXXXXXXX" style="text;strokeColor=none;fillColor=none;spacingLeft=4;spacingRight=4;overflow=hidden;rotatable=0;points=[[0,0.5],[1,0.5]];portConstraint=eastwest;fontSize=12;rounded=1;" parent="lRTCh0KjeCy6rbM3OG8G-13" vertex="1">
          <mxGeometry y="30" width="140" height="75" as="geometry" />
        </mxCell>
        <mxCell id="lRTCh0KjeCy6rbM3OG8G-14" value="&lt;font style=&quot;font-size: 14px&quot;&gt;ATRIBUTO&lt;/font&gt;" style="text;html=1;strokeColor=none;fillColor=none;align=left;verticalAlign=middle;whiteSpace=wrap;rounded=0;fontSize=14;fontStyle=1" parent="1" vertex="1">
          <mxGeometry x="595" y="110" width="100" height="20" as="geometry" />
        </mxCell>
        <mxCell id="lRTCh0KjeCy6rbM3OG8G-17" value="" style="swimlane;childLayout=stackLayout;horizontal=1;startSize=30;horizontalStack=0;rounded=0;fontSize=14;fontStyle=0;strokeWidth=2;resizeParent=0;resizeLast=1;shadow=0;dashed=0;align=center;aspect=fixed;" parent="1" vertex="1">
          <mxGeometry x="445" y="210" width="140" height="105" as="geometry" />
        </mxCell>
        <mxCell id="lRTCh0KjeCy6rbM3OG8G-18" value="* XXXXXXXXXXXXXXX" style="text;strokeColor=none;fillColor=none;spacingLeft=4;spacingRight=4;overflow=hidden;rotatable=0;points=[[0,0.5],[1,0.5]];portConstraint=eastwest;fontSize=12;rounded=1;" parent="lRTCh0KjeCy6rbM3OG8G-17" vertex="1">
          <mxGeometry y="30" width="140" height="75" as="geometry" />
        </mxCell>
        <mxCell id="lRTCh0KjeCy6rbM3OG8G-19" value="&lt;font style=&quot;font-size: 14px&quot;&gt;ATRIBUTO CHAVE&lt;/font&gt;" style="text;html=1;strokeColor=none;fillColor=none;align=left;verticalAlign=middle;whiteSpace=wrap;rounded=0;fontSize=14;fontStyle=1" parent="1" vertex="1">
          <mxGeometry x="595" y="240" width="145" height="20" as="geometry" />
        </mxCell>
        <mxCell id="lRTCh0KjeCy6rbM3OG8G-21" value="" style="endArrow=ERzeroToOne;html=1;rounded=0;strokeWidth=2;endFill=1;" parent="1" edge="1">
          <mxGeometry relative="1" as="geometry">
            <mxPoint x="445" y="376" as="sourcePoint" />
            <mxPoint x="585" y="376" as="targetPoint" />
          </mxGeometry>
        </mxCell>
        <mxCell id="lRTCh0KjeCy6rbM3OG8G-22" value="" style="endArrow=ERmandOne;html=1;rounded=0;strokeWidth=2;endFill=0;" parent="1" edge="1">
          <mxGeometry relative="1" as="geometry">
            <mxPoint x="445" y="396" as="sourcePoint" />
            <mxPoint x="585" y="396" as="targetPoint" />
          </mxGeometry>
        </mxCell>
        <mxCell id="lRTCh0KjeCy6rbM3OG8G-23" value="" style="endArrow=ERmany;html=1;rounded=0;strokeWidth=2;endFill=0;" parent="1" edge="1">
          <mxGeometry relative="1" as="geometry">
            <mxPoint x="445" y="416" as="sourcePoint" />
            <mxPoint x="585" y="416" as="targetPoint" />
          </mxGeometry>
        </mxCell>
        <mxCell id="lRTCh0KjeCy6rbM3OG8G-24" value="" style="endArrow=ERzeroToMany;html=1;rounded=0;strokeWidth=2;endFill=1;" parent="1" edge="1">
          <mxGeometry relative="1" as="geometry">
            <mxPoint x="445" y="436" as="sourcePoint" />
            <mxPoint x="585" y="436" as="targetPoint" />
          </mxGeometry>
        </mxCell>
        <mxCell id="lRTCh0KjeCy6rbM3OG8G-25" value="" style="endArrow=ERoneToMany;html=1;rounded=0;strokeWidth=2;endFill=0;" parent="1" edge="1">
          <mxGeometry relative="1" as="geometry">
            <mxPoint x="445" y="456" as="sourcePoint" />
            <mxPoint x="585" y="456" as="targetPoint" />
          </mxGeometry>
        </mxCell>
        <mxCell id="lRTCh0KjeCy6rbM3OG8G-26" value="" style="endArrow=ERone;html=1;rounded=0;strokeWidth=2;endFill=0;" parent="1" edge="1">
          <mxGeometry relative="1" as="geometry">
            <mxPoint x="445" y="358" as="sourcePoint" />
            <mxPoint x="585" y="358" as="targetPoint" />
          </mxGeometry>
        </mxCell>
        <mxCell id="lRTCh0KjeCy6rbM3OG8G-27" value="&lt;font style=&quot;font-size: 14px&quot;&gt;CARDINALIDADE&lt;/font&gt;" style="text;html=1;strokeColor=none;fillColor=none;align=left;verticalAlign=middle;whiteSpace=wrap;rounded=0;fontSize=14;fontStyle=1" parent="1" vertex="1">
          <mxGeometry x="600" y="390" width="150" height="20" as="geometry" />
        </mxCell>
        <mxCell id="lRTCh0KjeCy6rbM3OG8G-28" value="Cliente" style="swimlane;childLayout=stackLayout;horizontal=1;startSize=30;horizontalStack=0;rounded=0;fontSize=14;fontStyle=0;strokeWidth=2;resizeParent=0;resizeLast=1;shadow=0;dashed=0;align=center;aspect=fixed;" parent="1" vertex="1">
          <mxGeometry x="185" y="600" width="140" height="120" as="geometry" />
        </mxCell>
        <mxCell id="lRTCh0KjeCy6rbM3OG8G-49" value="CNPJ&#xa;Tipo&#xa;Nome&#xa;Número&#xa;Logradouro" style="text;strokeColor=none;fillColor=none;spacingLeft=4;spacingRight=4;overflow=hidden;rotatable=0;points=[[0,0.5],[1,0.5]];portConstraint=eastwest;fontSize=12;rounded=1;" parent="lRTCh0KjeCy6rbM3OG8G-28" vertex="1">
          <mxGeometry y="30" width="140" height="90" as="geometry" />
        </mxCell>
        <mxCell id="lRTCh0KjeCy6rbM3OG8G-29" value="Setor responsável" style="swimlane;childLayout=stackLayout;horizontal=1;startSize=30;horizontalStack=0;rounded=0;fontSize=14;fontStyle=0;strokeWidth=2;resizeParent=0;resizeLast=1;shadow=0;dashed=0;align=center;aspect=fixed;" parent="1" vertex="1">
          <mxGeometry x="436.66" y="810" width="116.67" height="87.5" as="geometry" />
        </mxCell>
        <mxCell id="lRTCh0KjeCy6rbM3OG8G-50" value="Nome" style="text;strokeColor=none;fillColor=none;spacingLeft=4;spacingRight=4;overflow=hidden;rotatable=0;points=[[0,0.5],[1,0.5]];portConstraint=eastwest;fontSize=12;rounded=1;" parent="lRTCh0KjeCy6rbM3OG8G-29" vertex="1">
          <mxGeometry y="30" width="116.67" height="57.5" as="geometry" />
        </mxCell>
        <mxCell id="lRTCh0KjeCy6rbM3OG8G-30" value="Setor de controle" style="swimlane;childLayout=stackLayout;horizontal=1;startSize=30;horizontalStack=0;rounded=0;fontSize=14;fontStyle=0;strokeWidth=2;resizeParent=0;resizeLast=1;shadow=0;dashed=0;align=center;" parent="1" vertex="1">
          <mxGeometry x="425" y="970" width="140" height="70" as="geometry" />
        </mxCell>
        <mxCell id="lRTCh0KjeCy6rbM3OG8G-31" value="Chamados" style="swimlane;childLayout=stackLayout;horizontal=1;startSize=30;horizontalStack=0;rounded=0;fontSize=14;fontStyle=0;strokeWidth=2;resizeParent=0;resizeLast=1;shadow=0;dashed=0;align=center;" parent="1" vertex="1">
          <mxGeometry x="185" y="790" width="140" height="70" as="geometry" />
        </mxCell>
        <mxCell id="lRTCh0KjeCy6rbM3OG8G-32" value="Abre" style="fontSize=12;html=1;endArrow=ERzeroToMany;endFill=1;startArrow=ERzeroToMany;strokeWidth=2;entryX=0.5;entryY=1;entryDx=0;entryDy=0;exitX=0.5;exitY=0;exitDx=0;exitDy=0;" parent="1" source="lRTCh0KjeCy6rbM3OG8G-31" target="lRTCh0KjeCy6rbM3OG8G-28" edge="1">
          <mxGeometry width="100" height="100" relative="1" as="geometry">
            <mxPoint x="370" y="840" as="sourcePoint" />
            <mxPoint x="470" y="740" as="targetPoint" />
          </mxGeometry>
        </mxCell>
        <mxCell id="lRTCh0KjeCy6rbM3OG8G-36" value="Atribui" style="fontSize=12;html=1;endArrow=ERzeroToMany;endFill=1;strokeWidth=2;exitX=0.5;exitY=1;exitDx=0;exitDy=0;entryX=0.5;entryY=0;entryDx=0;entryDy=0;startArrow=ERone;startFill=0;" parent="1" source="lRTCh0KjeCy6rbM3OG8G-29" target="lRTCh0KjeCy6rbM3OG8G-30" edge="1">
          <mxGeometry width="100" height="100" relative="1" as="geometry">
            <mxPoint x="710" y="830" as="sourcePoint" />
            <mxPoint x="810" y="730" as="targetPoint" />
          </mxGeometry>
        </mxCell>
        <mxCell id="lRTCh0KjeCy6rbM3OG8G-37" value="Ordem de Serviço" style="swimlane;childLayout=stackLayout;horizontal=1;startSize=30;horizontalStack=0;rounded=0;fontSize=14;fontStyle=0;strokeWidth=2;resizeParent=0;resizeLast=1;shadow=0;dashed=0;align=center;" parent="1" vertex="1">
          <mxGeometry x="160" y="970" width="140" height="110" as="geometry" />
        </mxCell>
        <mxCell id="lRTCh0KjeCy6rbM3OG8G-42" value="Nº de identificação&#xa;Descrição&#xa;Data/hora de inicio/fim&#xa;Local do serviço" style="text;strokeColor=none;fillColor=none;spacingLeft=4;spacingRight=4;overflow=hidden;rotatable=0;points=[[0,0.5],[1,0.5]];portConstraint=eastwest;fontSize=12;rounded=1;" parent="lRTCh0KjeCy6rbM3OG8G-37" vertex="1">
          <mxGeometry y="30" width="140" height="80" as="geometry" />
        </mxCell>
        <mxCell id="6kZbckSRS-zdu-l3rblA-3" value="Gera" style="fontSize=12;html=1;endArrow=ERzeroToMany;endFill=1;startArrow=ERzeroToMany;strokeWidth=2;exitX=0.693;exitY=0.012;exitDx=0;exitDy=0;exitPerimeter=0;entryX=0.5;entryY=1;entryDx=0;entryDy=0;" edge="1" parent="1" source="lRTCh0KjeCy6rbM3OG8G-37" target="lRTCh0KjeCy6rbM3OG8G-31">
          <mxGeometry x="0.0162" y="-3" width="100" height="100" relative="1" as="geometry">
            <mxPoint x="254.5" y="950" as="sourcePoint" />
            <mxPoint x="257" y="900" as="targetPoint" />
            <mxPoint as="offset" />
          </mxGeometry>
        </mxCell>
        <mxCell id="6kZbckSRS-zdu-l3rblA-6" value="" style="endArrow=ERzeroToMany;html=1;rounded=0;strokeWidth=2;endFill=1;exitX=0.993;exitY=0.182;exitDx=0;exitDy=0;exitPerimeter=0;entryX=0;entryY=0.25;entryDx=0;entryDy=0;" edge="1" parent="1" source="lRTCh0KjeCy6rbM3OG8G-37" target="lRTCh0KjeCy6rbM3OG8G-30">
          <mxGeometry relative="1" as="geometry">
            <mxPoint x="300" y="1040" as="sourcePoint" />
            <mxPoint x="440" y="1040" as="targetPoint" />
          </mxGeometry>
        </mxCell>
        <mxCell id="6kZbckSRS-zdu-l3rblA-7" value="Administra" style="edgeLabel;html=1;align=center;verticalAlign=middle;resizable=0;points=[];fontSize=14;" vertex="1" connectable="0" parent="1">
          <mxGeometry x="360" y="960" as="geometry" />
        </mxCell>
        <mxCell id="6kZbckSRS-zdu-l3rblA-11" value="Repassa" style="fontSize=12;html=1;endArrow=ERzeroToMany;endFill=1;strokeWidth=2;entryX=0.5;entryY=0;entryDx=0;entryDy=0;startArrow=ERone;startFill=0;exitX=0.414;exitY=1.038;exitDx=0;exitDy=0;exitPerimeter=0;" edge="1" parent="1" source="6kZbckSRS-zdu-l3rblA-13">
          <mxGeometry width="100" height="100" relative="1" as="geometry">
            <mxPoint x="500" y="730" as="sourcePoint" />
            <mxPoint x="500" y="810" as="targetPoint" />
          </mxGeometry>
        </mxCell>
        <mxCell id="6kZbckSRS-zdu-l3rblA-12" value="Funcionário" style="swimlane;childLayout=stackLayout;horizontal=1;startSize=30;horizontalStack=0;rounded=0;fontSize=14;fontStyle=0;strokeWidth=2;resizeParent=0;resizeLast=1;shadow=0;dashed=0;align=center;aspect=fixed;" vertex="1" parent="1">
          <mxGeometry x="445.00000000000006" y="610" width="128.33" height="110" as="geometry" />
        </mxCell>
        <mxCell id="6kZbckSRS-zdu-l3rblA-13" value="CNPJ&#xa;Tipo&#xa;Nome&#xa;Número&#xa;Logradouro" style="text;strokeColor=none;fillColor=none;spacingLeft=4;spacingRight=4;overflow=hidden;rotatable=0;points=[[0,0.5],[1,0.5]];portConstraint=eastwest;fontSize=12;rounded=1;" vertex="1" parent="6kZbckSRS-zdu-l3rblA-12">
          <mxGeometry y="30" width="128.33" height="80" as="geometry" />
        </mxCell>
        <mxCell id="6kZbckSRS-zdu-l3rblA-14" value="" style="endArrow=none;html=1;rounded=0;strokeWidth=2;exitX=1.017;exitY=0.5;exitDx=0;exitDy=0;exitPerimeter=0;entryX=0;entryY=0.5;entryDx=0;entryDy=0;startArrow=none;" edge="1" parent="1" source="6kZbckSRS-zdu-l3rblA-15" target="6kZbckSRS-zdu-l3rblA-12">
          <mxGeometry relative="1" as="geometry">
            <mxPoint x="305" y="670" as="sourcePoint" />
            <mxPoint x="445" y="670" as="targetPoint" />
          </mxGeometry>
        </mxCell>
        <mxCell id="6kZbckSRS-zdu-l3rblA-15" value="Atende" style="text;html=1;align=center;verticalAlign=middle;resizable=0;points=[];autosize=1;strokeColor=none;fillColor=none;" vertex="1" parent="1">
          <mxGeometry x="360" y="650" width="60" height="30" as="geometry" />
        </mxCell>
        <mxCell id="6kZbckSRS-zdu-l3rblA-16" value="" style="endArrow=none;html=1;rounded=0;strokeWidth=2;" edge="1" parent="1" target="6kZbckSRS-zdu-l3rblA-15">
          <mxGeometry relative="1" as="geometry">
            <mxPoint x="330" y="665" as="sourcePoint" />
            <mxPoint x="370" y="663" as="targetPoint" />
          </mxGeometry>
        </mxCell>
        <mxCell id="6kZbckSRS-zdu-l3rblA-21" style="edgeStyle=orthogonalEdgeStyle;rounded=0;orthogonalLoop=1;jettySize=auto;html=1;entryX=1;entryY=0;entryDx=0;entryDy=0;" edge="1" parent="1" source="lRTCh0KjeCy6rbM3OG8G-50" target="lRTCh0KjeCy6rbM3OG8G-37">
          <mxGeometry relative="1" as="geometry" />
        </mxCell>
        <mxCell id="6kZbckSRS-zdu-l3rblA-22" style="edgeStyle=orthogonalEdgeStyle;rounded=0;orthogonalLoop=1;jettySize=auto;html=1;entryX=1;entryY=0.5;entryDx=0;entryDy=0;" edge="1" parent="1" source="6kZbckSRS-zdu-l3rblA-13" target="lRTCh0KjeCy6rbM3OG8G-30">
          <mxGeometry relative="1" as="geometry">
            <Array as="points">
              <mxPoint x="650" y="680" />
              <mxPoint x="650" y="1005" />
            </Array>
          </mxGeometry>
        </mxCell>
      </root>
    </mxGraphModel>
  </diagram>
</mxfile>
